<?xml version="1.0" encoding="utf-8"?>
<!-- Generator: Adobe Illustrator 28.0.0, SVG Export Plug-In . SVG Version: 6.00 Build 0)  -->
<svg version="1.1" id="cl-logo-white" xmlns="http://www.w3.org/2000/svg" xmlns:xlink="http://www.w3.org/1999/xlink" x="0px" y="0px"
	 viewBox="0 0 1314.3 200" style="enable-background:new 0 0 1314.3 200;" xml:space="preserve">
<style type="text/css">
	#cl-logo-white .st0{fill:#FFFFFF;}
	#cl-logo-white .st1{fill:none;}
	#cl-logo-white .st2{fill:#14B8A6;}
	#cl-logo-white .st3{clip-path:url(#SVGID_00000049923246950481479190000012851426550325994153_);}
	#cl-logo-white .st4{clip-path:url(#SVGID_00000051382893017517118030000008756411322797923510_);}
	#cl-logo-white .st5{clip-path:url(#SVGID_00000003086603180173103040000005061231142791825315_);}
	#cl-logo-white .st6{clip-path:url(#SVGID_00000088829937172260861120000015763520425237838523_);}
	#cl-logo-white .st7{clip-path:url(#SVGID_00000060738613568519589730000004111313755781353139_);}
	#cl-logo-white .st8{fill-rule:evenodd;clip-rule:evenodd;fill:#14B8A6;}
	#cl-logo-white .st9{fill-rule:evenodd;clip-rule:evenodd;fill:#FFFFFF;}
</style>
<g>
	<g>
		<g>
			<g transform="translate(0.624531, 96.988326)">
				<g>
					<path class="st0" d="M457.1,96.1c-13.5,0-25.3-2.7-35.6-8.1c-10.3-5.4-18.3-12.9-24.1-22.6c-5.8-9.7-8.7-20.8-8.7-33.5
						c0-12.7,2.9-23.8,8.7-33.3c5.8-9.6,13.8-17.1,24.1-22.5c10.3-5.4,22.1-8.1,35.6-8.1c13.4,0,25.3,2.7,35.5,8.1
						c10.3,5.4,18.3,12.9,24,22.5c5.7,9.6,8.6,20.7,8.6,33.3c0,12.6-2.9,23.8-8.6,33.5c-5.7,9.6-13.7,17.2-24,22.6
						C482.4,93.4,470.5,96.1,457.1,96.1z M423.5,32c0,9.9,3.1,18,9.4,24.3c6.3,6.3,14.3,9.5,24.2,9.5c9.9,0,17.9-3.2,24.1-9.5
						c6.2-6.3,9.3-14.4,9.3-24.3c0-10-3.1-18.2-9.3-24.4C475,1.3,467-1.9,457.1-1.9c-9.9,0-18,3.1-24.2,9.4
						C426.7,13.8,423.5,21.9,423.5,32z"/>
				</g>
			</g>
		</g>
		<g>
			<g transform="translate(54.711298, 96.988326)">
				<g>
					<path class="st0" d="M536,96.1c-12.1,0-22.7-2.7-32-8.2c-9.3-5.5-16.6-13.1-21.9-22.7c-5.3-9.7-8-20.7-8-33.2
						c0-12.5,2.7-23.5,8-33.1c5.3-9.6,12.6-17.1,21.9-22.6c9.3-5.5,19.9-8.2,32-8.2c7.5,0,14.5,1.1,21,3.3
						c6.5,2.2,12.4,5.4,17.6,9.4v-59.3h35.2V92.9h-26.2L579.5,79c-5.4,5.4-11.8,9.6-19.3,12.6C552.8,94.6,544.7,96.1,536,96.1z
						 M508.9,32c0,9.9,3.1,18,9.4,24.3c6.3,6.3,14.3,9.5,24.2,9.5c9.9,0,17.9-3.2,24.1-9.5c6.2-6.3,9.3-14.4,9.3-24.3
						c0-9.9-3.1-18-9.3-24.3c-6.2-6.3-14.2-9.5-24.1-9.5c-9.9,0-18,3.2-24.2,9.5C512,14,508.9,22.1,508.9,32z"/>
				</g>
			</g>
		</g>
		<g>
			<g transform="translate(111.852801, 96.988326)">
				<g>
					<path class="st0" d="M632.6,96.1c-13.5,0-25.3-2.7-35.6-8.1c-10.3-5.4-18.3-12.9-24.1-22.6c-5.8-9.7-8.7-20.8-8.7-33.5
						c0-12.7,2.9-23.8,8.7-33.3c5.8-9.6,13.8-17.1,24.1-22.5c10.3-5.4,22.1-8.1,35.6-8.1c13.4,0,25.3,2.7,35.5,8.1
						c10.3,5.4,18.3,12.9,24,22.5c5.7,9.6,8.6,20.7,8.6,33.3c0,12.6-2.9,23.8-8.6,33.5c-5.7,9.6-13.7,17.2-24,22.6
						C657.9,93.4,646,96.1,632.6,96.1z M599,32c0,9.9,3.1,18,9.4,24.3c6.3,6.3,14.3,9.5,24.2,9.5c9.9,0,17.9-3.2,24.1-9.5
						c6.2-6.3,9.3-14.4,9.3-24.3c0-10-3.1-18.2-9.3-24.4c-6.2-6.3-14.2-9.4-24.1-9.4c-9.9,0-18,3.1-24.2,9.4
						C602.1,13.8,599,21.9,599,32z"/>
				</g>
			</g>
		</g>
		<g>
			<g transform="translate(165.939568, 96.988326)">
				<g>
					<path class="st0" d="M739.2-28.7v32h-13.5c-10.1,0-18,2.7-23.8,8.1c-4.5,4.2-7.3,10.8-8.2,19.8h-35.6v-59.8h26.2l4.6,16.2
						c4-5.7,8.9-9.8,14.8-12.4c5.9-2.6,13.3-3.8,22.3-3.8H739.2z"/>
				</g>
			</g>
		</g>
		<g>
			<g transform="translate(201.428393, 96.988326)">
				<g>
					<path class="st0" d="M714.2,92.9V-28.7h35.2V92.9H714.2z M709.1-68.1c0-6.5,2.1-11.8,6.4-15.9c4.2-4.1,9.7-6.2,16.3-6.2
						c6.8,0,12.3,2.1,16.4,6.2c4.2,4.1,6.3,9.4,6.3,15.9c0,6.5-2.1,11.8-6.3,15.9c-4.2,4.1-9.6,6.1-16.4,6.1c-6.6,0-12.1-2-16.3-6.1
						C711.2-56.3,709.1-61.6,709.1-68.1z"/>
				</g>
			</g>
		</g>
		<g>
			<g transform="translate(222.901357, 96.988326)">
				<g>
					<path class="st0" d="M796.4,96.1c-15.8,0-28.2-5-37.2-14.9c-9-10-13.5-23.4-13.5-40.2v-69.7h35.2v66.3c0,8.9,2.1,15.9,6.4,20.8
						c4.2,4.9,10.1,7.4,17.5,7.4c8,0,14.4-2.8,19.2-8.3c4.8-5.6,7.2-13.1,7.2-22.7v-63.5h35.2V92.9h-26.1l-3.7-13.7
						c-4.8,5.7-10.7,9.9-17.6,12.7C811.9,94.7,804.5,96.1,796.4,96.1z"/>
				</g>
			</g>
		</g>
		<g>
			<g transform="translate(276.628747, 96.988326)">
				<g>
					<path class="st0" d="M832.8,92.9V-28.7H859l3.5,12.5c4.5-5.3,9.9-9.2,16.3-11.8c6.4-2.6,13.5-3.9,21.2-3.9
						c17.9,0,31.3,6.6,40,19.9c4.9-6.3,11.2-11.2,18.6-14.7s15.9-5.2,25.1-5.2c15.6,0,28,4.8,37.2,14.5c9.2,9.6,13.8,22.8,13.8,39.5
						v70.9h-35.2V26.2c0-8.6-2.1-15.5-6.4-20.5c-4.2-5-10-7.5-17.2-7.5c-7.6,0-13.6,2.6-18.1,7.9c-4.5,5.2-6.7,12.3-6.7,21.1v65.8
						h-34.7V26.2c0-8.6-2.1-15.5-6.4-20.5c-4.2-5-10-7.5-17.3-7.5c-7.6,0-13.6,2.6-18,7.9c-4.5,5.2-6.7,12.3-6.7,21.1v65.8H832.8z"
						/>
				</g>
			</g>
		</g>
		<polygon class="st1" points="859,128.1 894.4,128.1 878.4,189.9 843,189.9 		"/>
		<polygon class="st2" points="859.8,128.1 895.3,128.1 879.2,189.9 843.8,189.9 		"/>
		<g>
			<defs>
				<rect id="SVGID_1_" x="919.4" y="11.8" width="30.6" height="30.6"/>
			</defs>
			<clipPath id="SVGID_00000124860830936510949910000014520694714880106375_">
				<use xlink:href="#SVGID_1_"  style="overflow:visible;"/>
			</clipPath>
			<g style="clip-path:url(#SVGID_00000124860830936510949910000014520694714880106375_);">
				<g>
					<defs>
						<path id="SVGID_00000160887392873754783480000003099864872340798142_" d="M934.7,11.8c-8.4,0-15.3,6.8-15.3,15.3
							s6.8,15.3,15.3,15.3S950,35.5,950,27.1S943.1,11.8,934.7,11.8z"/>
					</defs>
					<clipPath id="SVGID_00000055692428877409113650000018042576237659116720_">
						<use xlink:href="#SVGID_00000160887392873754783480000003099864872340798142_"  style="overflow:visible;"/>
					</clipPath>
					<g style="clip-path:url(#SVGID_00000055692428877409113650000018042576237659116720_);">
						<g transform="matrix(1, 0, 0, 1, 367, 36)">
							<g>
								<defs>
									<rect id="SVGID_00000005226278140840172960000011018752292339189949_" x="550.5" y="-26.6" width="33.5" height="33.5"/>
								</defs>
								<clipPath id="SVGID_00000131352821819127304320000017464649674141789105_">
									<use xlink:href="#SVGID_00000005226278140840172960000011018752292339189949_"  style="overflow:visible;"/>
								</clipPath>
								<g style="clip-path:url(#SVGID_00000131352821819127304320000017464649674141789105_);">
									<g>
										<defs>
											<rect id="SVGID_00000180358732478730960590000002261162216008668056_" x="552.4" y="-24.2" width="30.6" height="30.6"/>
										</defs>
										<clipPath id="SVGID_00000111912758545544399990000016637375519029477272_">
											<use xlink:href="#SVGID_00000180358732478730960590000002261162216008668056_"  style="overflow:visible;"/>
										</clipPath>
										<g style="clip-path:url(#SVGID_00000111912758545544399990000016637375519029477272_);">
											<g>
												<defs>
													<path id="SVGID_00000165924482431648029950000012213193579196691845_" d="M567.7-24.2c-8.4,0-15.3,6.8-15.3,15.3
														s6.8,15.3,15.3,15.3S583-0.5,583-8.9S576.1-24.2,567.7-24.2z"/>
												</defs>
												<clipPath id="SVGID_00000013888470087232115530000005556074608715669636_">
													<use xlink:href="#SVGID_00000165924482431648029950000012213193579196691845_"  style="overflow:visible;"/>
												</clipPath>
												<g style="clip-path:url(#SVGID_00000013888470087232115530000005556074608715669636_);">
													<path class="st2" d="M552.4-24.2H583V6.4h-30.6V-24.2z"/>
												</g>
											</g>
										</g>
									</g>
								</g>
							</g>
						</g>
					</g>
				</g>
			</g>
		</g>
		<g transform="translate(52.493126, 111.190055)">
			<g>
				<path class="st0" d="M300.5,67.7c-11,6.8-22.2,10.6-33.6,11.3c-11.4,0.7-22.1-1.6-32-6.8c-9.9-5.2-18.1-13.1-24.7-23.7
					C203.5,37.9,200,27,199.7,16c-0.3-11.1,2.4-21.6,8-31.6c5.6-10,13.9-18.4,24.9-25.3c9.6-6,19.3-9.6,29.2-11
					c10-1.4,19.5-0.5,28.6,2.6c9.1,3.1,17.1,8.5,24,16l-28.7,17.9c-5.8-3.6-11.9-5.5-18.3-5.6c-6.4-0.1-12.6,1.7-18.4,5.4
					c-8,5-12.9,11.7-14.7,20.2c-1.8,8.5,0,17,5.3,25.5c5.2,8.4,12.1,13.7,20.5,15.8c8.5,2.2,16.7,0.8,24.7-4.2
					c6.3-3.9,10.8-9,13.5-15.3c2.7-6.3,3.4-13,1.9-19.9l29.1-18.2c3.8,10.2,5.2,20.2,4.1,30c-1,9.9-4.3,19-9.9,27.5
					C317.8,54.4,310.2,61.7,300.5,67.7z"/>
			</g>
		</g>
	</g>
	<g>
		<path class="st8" d="M1.4,50L73.1,0v200L1.4,150L0,149L1.4,50z"/>
		<path class="st9" d="M88.4,200h78.9l35.7-82.5l-83,0.4L88.4,200z"/>
		<path class="st9" d="M88.4,0h78.9L203,82.5l-83-0.4L88.4,0z"/>
	</g>
</g>
</svg>
