<svg xmlns="http://www.w3.org/2000/svg" xmlns:xlink="http://www.w3.org/1999/xlink" width="2000" zoomAndPan="magnify" viewBox="0 0 1500 1499.999933" height="2000" preserveAspectRatio="xMidYMid meet" version="1.0"><defs><clipPath id="f48d2e1a9e"><path d="M 1 12.273438 L 541 12.273438 L 541 1487.523438 L 1 1487.523438 Z M 1 12.273438 " clip-rule="nonzero"/></clipPath><clipPath id="5f0d1ed711"><path d="M 653 878 L 1499 878 L 1499 1487.523438 L 653 1487.523438 Z M 653 878 " clip-rule="nonzero"/></clipPath><clipPath id="669205f255"><path d="M 653 12.273438 L 1499 12.273438 L 1499 622 L 653 622 Z M 653 12.273438 " clip-rule="nonzero"/></clipPath></defs><g clip-path="url(#f48d2e1a9e)"><path fill="#14b8a6" d="M 11.648438 381.105469 L 540.042969 12.273438 L 540.042969 1487.722656 L 11.648438 1118.828125 L 1.078125 1111.476562 Z M 11.648438 381.105469 " fill-opacity="1" fill-rule="evenodd"/></g><g clip-path="url(#5f0d1ed711)"><path fill="#0a2463" d="M 653.21875 1487.722656 L 1235.414062 1487.722656 L 1498.921875 878.90625 L 886.914062 882.160156 Z M 653.21875 1487.722656 " fill-opacity="1" fill-rule="evenodd"/></g><g clip-path="url(#669205f255)"><path fill="#0a2463" d="M 653.21875 12.273438 L 1235.414062 12.273438 L 1498.921875 621.058594 L 886.914062 617.804688 Z M 653.21875 12.273438 " fill-opacity="1" fill-rule="evenodd"/></g></svg>